<svg width="512" height="512" xmlns="http://www.w3.org/2000/svg" viewBox="0 0 512 512" shape-rendering="geometricPrecision">
  <defs>
    <linearGradient id="faviconGradient" x1="0%" y1="0%" x2="100%" y2="100%">
      <stop offset="0%" style="stop-color:#002f4d;stop-opacity:1" />
      <stop offset="100%" style="stop-color:#0066cc;stop-opacity:1" />
    </linearGradient>
  </defs>
  
  <!-- Industrial gear element - enhanced high-resolution version -->
  <g id="gear" shape-rendering="geometricPrecision">
    <!-- Main gear circle with enhanced border -->
    <circle cx="256" cy="256" r="185" fill="url(#faviconGradient)" stroke="#002f4d" stroke-width="10"/>
    
    <!-- Gear teeth - enhanced with better proportions and symmetry -->
    <path d="M 256 45 L 280 88 L 232 88 Z" fill="#002f4d" shape-rendering="geometricPrecision"/>
    <path d="M 394 104 L 381 150 L 338 127 Z" fill="#002f4d" shape-rendering="geometricPrecision"/>
    <path d="M 456 238 L 408 252 L 408 208 Z" fill="#002f4d" shape-rendering="geometricPrecision"/>
    <path d="M 456 274 L 408 260 L 408 304 Z" fill="#002f4d" shape-rendering="geometricPrecision"/>
    <path d="M 394 408 L 381 362 L 338 385 Z" fill="#002f4d" shape-rendering="geometricPrecision"/>
    <path d="M 256 467 L 280 424 L 232 424 Z" fill="#002f4d" shape-rendering="geometricPrecision"/>
    <path d="M 118 408 L 131 362 L 174 385 Z" fill="#002f4d" shape-rendering="geometricPrecision"/>
    <path d="M 56 274 L 104 260 L 104 304 Z" fill="#002f4d" shape-rendering="geometricPrecision"/>
    <path d="M 56 238 L 104 252 L 104 208 Z" fill="#002f4d" shape-rendering="geometricPrecision"/>
    <path d="M 118 104 L 131 150 L 174 127 Z" fill="#002f4d" shape-rendering="geometricPrecision"/>
    
    <!-- Inner circles with enhanced contrast -->
    <circle cx="256" cy="256" r="85" fill="#002f4d" stroke="#0066cc" stroke-width="8"/>
    <circle cx="256" cy="256" r="45" fill="#ffffff" stroke="#002f4d" stroke-width="3"/>
  </g>
</svg>
