<svg width="512" height="512" xmlns="http://www.w3.org/2000/svg" viewBox="0 0 512 512">
  <defs>
    <linearGradient id="faviconGradient" x1="0%" y1="0%" x2="100%" y2="100%">
      <stop offset="0%" style="stop-color:#002f4d;stop-opacity:1" />
      <stop offset="100%" style="stop-color:#0066cc;stop-opacity:1" />
    </linearGradient>
  </defs>
  
  <!-- Industrial gear element - improved and sharper for favicon -->
  <g id="gear">
    <!-- Main gear circle -->
    <circle cx="256" cy="256" r="180" fill="url(#faviconGradient)" stroke="#002f4d" stroke-width="8"/>
    
    <!-- Gear teeth - improved with better proportions -->
    <path d="M 256 50 L 276 88 L 236 88 Z" fill="#002f4d"/>
    <path d="M 388.4 109.2 L 378.4 147 L 340.6 129 Z" fill="#002f4d"/>
    <path d="M 449.4 240.6 L 411.6 250.6 L 411.6 210.8 Z" fill="#002f4d"/>
    <path d="M 449.4 271.4 L 411.6 261.4 L 411.6 301.2 Z" fill="#002f4d"/>
    <path d="M 388.4 402.8 L 378.4 365 L 340.6 383 Z" fill="#002f4d"/>
    <path d="M 256 462 L 276 424 L 236 424 Z" fill="#002f4d"/>
    <path d="M 123.6 402.8 L 133.6 365 L 171.4 383 Z" fill="#002f4d"/>
    <path d="M 62.6 271.4 L 100.4 261.4 L 100.4 301.2 Z" fill="#002f4d"/>
    <path d="M 62.6 240.6 L 100.4 250.6 L 100.4 210.8 Z" fill="#002f4d"/>
    <path d="M 123.6 109.2 L 133.6 147 L 171.4 129 Z" fill="#002f4d"/>
    
    <!-- Inner circle -->
    <circle cx="256" cy="256" r="80" fill="#002f4d" stroke="#0066cc" stroke-width="6"/>
    <circle cx="256" cy="256" r="40" fill="white"/>
  </g>
</svg>
